<svg width="33" height="33" viewBox="0 0 33 33" fill="none" xmlns="http://www.w3.org/2000/svg">
<path d="M16.5001 19.1665C19.4415 19.1665 21.8335 16.7745 21.8335 13.8332C21.8335 10.8918 19.4415 8.49984 16.5001 8.49984C13.5588 8.49984 11.1668 10.8918 11.1668 13.8332C11.1668 16.7745 13.5588 19.1665 16.5001 19.1665ZM16.5001 11.1665C17.9708 11.1665 19.1668 12.3625 19.1668 13.8332C19.1668 15.3038 17.9708 16.4998 16.5001 16.4998C15.0295 16.4998 13.8335 15.3038 13.8335 13.8332C13.8335 12.3625 15.0295 11.1665 16.5001 11.1665Z" fill="#1A1D26"/>
<path d="M15.7268 29.5852C15.9525 29.7463 16.2229 29.833 16.5002 29.833C16.7775 29.833 17.0478 29.7463 17.2735 29.5852C17.6788 29.2985 27.2055 22.4198 27.1668 13.8332C27.1668 7.95184 22.3815 3.1665 16.5002 3.1665C10.6188 3.1665 5.83349 7.95184 5.83349 13.8265C5.79482 22.4198 15.3215 29.2985 15.7268 29.5852ZM16.5002 5.83317C20.9122 5.83317 24.5002 9.42117 24.5002 13.8398C24.5282 19.7572 18.6495 25.0705 16.5002 26.8132C14.3522 25.0692 8.47216 19.7545 8.50016 13.8332C8.50016 9.42117 12.0882 5.83317 16.5002 5.83317Z" fill="#1A1D26"/>
</svg>
