<svg width="25" height="25" viewBox="0 0 25 25" fill="none" xmlns="http://www.w3.org/2000/svg">
<path d="M14.832 17.568C15.0385 17.6628 15.2712 17.6845 15.4917 17.6294C15.7122 17.5744 15.9073 17.4458 16.045 17.265L16.4 16.8C16.5863 16.5516 16.8279 16.35 17.1056 16.2111C17.3833 16.0723 17.6895 16 18 16H21C21.5304 16 22.0391 16.2107 22.4142 16.5858C22.7893 16.9609 23 17.4696 23 18V21C23 21.5304 22.7893 22.0391 22.4142 22.4142C22.0391 22.7893 21.5304 23 21 23C16.2261 23 11.6477 21.1036 8.27208 17.7279C4.89642 14.3523 3 9.7739 3 5C3 4.46957 3.21071 3.96086 3.58579 3.58579C3.96086 3.21071 4.46957 3 5 3H8C8.53043 3 9.03914 3.21071 9.41421 3.58579C9.78929 3.96086 10 4.46957 10 5V8C10 8.31049 9.92771 8.61672 9.78885 8.89443C9.65 9.17214 9.44839 9.41371 9.2 9.6L8.732 9.951C8.54842 10.0912 8.41902 10.2906 8.36579 10.5154C8.31256 10.7401 8.33878 10.9764 8.44 11.184C9.80668 13.9599 12.0544 16.2048 14.832 17.568Z" stroke="#1A1D26" stroke-opacity="0.6" stroke-width="2" stroke-linecap="round" stroke-linejoin="round"/>
</svg>
