<svg width="399" height="401" viewBox="0 0 399 401" fill="none" xmlns="http://www.w3.org/2000/svg">
<path fill-rule="evenodd" clip-rule="evenodd" d="M340.832 57.4497C306.677 23.6781 261.453 3.41071 213.516 0.393047C165.579 -2.62462 118.17 11.8114 80.05 41.0333C41.93 70.2552 15.676 112.288 6.13901 159.363C-3.39699 206.439 4.42798 255.375 28.17 297.129L0 400.049L105.313 372.432C134.434 388.31 167.074 396.628 200.242 396.624C239.507 396.554 277.871 384.86 310.499 363.017C343.127 341.175 368.558 310.162 383.586 273.887C398.614 237.613 402.567 197.701 394.945 159.183C387.323 120.666 368.469 85.2672 340.758 57.4497H340.832ZM200.316 363.079C170.75 363.078 141.727 355.129 116.287 340.065L110.248 336.382L47.649 352.768L64.366 291.974L60.463 285.751C41.002 254.748 32.394 218.158 35.993 181.73C39.593 145.303 55.195 111.104 80.347 84.5096C105.5 57.9152 138.777 40.4331 174.948 34.8111C211.118 29.1891 248.131 35.7461 280.169 53.4514C312.208 71.1566 337.454 99.0063 351.94 132.623C366.426 166.239 369.331 203.716 360.197 239.164C351.064 274.611 330.41 306.018 301.483 328.448C272.556 350.878 236.995 363.06 200.39 363.079H200.316ZM290.716 239.428C285.782 236.924 261.258 224.92 256.802 223.263C252.347 221.606 248.959 220.796 245.755 225.767C242.552 230.738 232.941 241.895 230.032 245.209C227.123 248.523 224.251 248.891 219.28 246.461C204.677 240.671 191.185 232.399 179.401 222.011C168.555 211.966 159.249 200.377 151.784 187.618C148.912 182.647 151.489 179.959 153.956 177.492C156.423 175.025 158.927 171.711 161.321 168.802C163.359 166.294 165.021 163.503 166.255 160.517C166.919 159.15 167.23 157.638 167.159 156.12C167.088 154.602 166.638 153.126 165.85 151.826C164.635 149.323 154.803 124.909 150.569 115.004C146.334 105.098 142.431 106.645 139.522 106.498C136.613 106.35 133.336 106.498 130.021 106.498C127.508 106.565 125.035 107.152 122.76 108.224C120.484 109.295 118.456 110.826 116.802 112.721C111.205 117.97 106.755 124.321 103.732 131.375C100.709 138.428 99.179 146.031 99.238 153.704C99.238 178.155 117.023 201.574 119.49 205.035C121.957 208.497 154.509 258.502 204.183 280.007C213.415 283.997 222.855 287.488 232.462 290.464C242.59 293.533 253.294 294.201 263.725 292.416C273.262 290.98 293.183 280.412 297.234 268.812C301.284 257.213 301.358 247.271 300.143 245.209C298.928 243.147 295.834 241.895 290.716 239.428Z" fill="white"/>
</svg>
